<?xml version="1.0" standalone="no"?><!-- Generator: Gravit.io --><svg xmlns="http://www.w3.org/2000/svg" xmlns:xlink="http://www.w3.org/1999/xlink" style="isolation:isolate" viewBox="0 0 400 60" width="400" height="60"><defs><clipPath id="_clipPath_A3SBMP4uNYVpmzKrrwthCYbMg9Or43Y4"><rect width="400" height="60"/></clipPath></defs><g clip-path="url(#_clipPath_A3SBMP4uNYVpmzKrrwthCYbMg9Or43Y4)"><g style="isolation:isolate" id="Layer 0"><g style="isolation:isolate" id="Layer 2"><rect x="430.562" y="-23.47" width="1" height="1" transform="matrix(1,0,0,1,0,0)" fill="rgb(235,235,235)"/></g><path d=" M 0.718 0.374 L 0.718 59.374 L 207.718 59.374 L 207.718 0.374 L 0.718 0.374 Z  M 9.718 49.374 L 22.718 49.374 L 22.718 36.374 L 34.718 36.374 C 38.954 33.605 41.393 29.424 41.718 24.374 C 42.089 18.622 39.543 13.528 34.718 10.374 L 9.718 10.374 L 9.718 49.374 Z  M 21.718 20.374 L 21.718 27.374 L 29.718 27.374 C 30.859 26.723 31.555 25.677 31.718 24.374 C 31.925 22.721 31.165 21.201 29.718 20.374 L 21.718 20.374 Z  M 46.718 49.374 L 77.718 49.374 L 77.718 40.374 L 57.718 40.374 L 57.718 34.374 L 74.718 34.374 L 74.718 26.374 L 57.718 26.374 L 57.718 20.374 L 77.718 20.374 L 77.718 10.374 L 46.718 10.374 L 46.718 49.374 Z  M 126.718 20.374 L 136.718 20.374 L 136.718 49.374 L 147.718 49.374 L 147.718 20.374 L 157.718 20.374 L 157.718 10.374 L 126.718 10.374 L 126.718 20.374 Z  M 166.718 12.867 L 166.718 49.374 L 177.718 49.374 L 177.718 35.374 L 186.718 35.374 L 186.718 49.374 L 197.718 49.374 L 197.718 12.622 Q 197.327 11.374 196.8 10.922 Q 196.102 10.323 194.346 10.363 L 169.526 10.374 Q 168.057 10.632 167.525 11.137 Q 167.063 11.576 166.718 12.867 Z  M 177.718 26.374 L 186.718 26.374 L 186.718 18.374 Q 183.526 17.288 181.718 17.374 Q 180.262 17.444 177.718 18.374 L 177.718 26.374 Z  M 86.718 49.374 L 97.718 49.374 L 97.718 33.374 L 105.718 49.374 L 117.718 49.374 L 117.718 10.374 L 105.718 10.374 L 105.718 26.374 L 98.718 10.374 L 86.718 10.374 L 86.718 49.374 Z " fill-rule="evenodd" fill="rgb(0,0,0)" vector-effect="non-scaling-stroke" stroke-width="1" stroke="rgb(0,0,0)" stroke-linejoin="miter" stroke-linecap="square" stroke-miterlimit="3"/></g><g style="isolation:isolate" id="Layer 1"><path d=" M 214.656 9.312 L 214.781 50.062 L 224.406 50.187 L 224.656 35.187 L 226.406 35.312 L 235.031 49.812 L 246.406 49.937 L 233.531 24.812 L 244.781 9.187 L 233.156 9.437 L 224.906 19.687 L 224.531 9.312 L 214.656 9.312 Z " fill="rgb(0,0,0)" vector-effect="non-scaling-stroke" stroke-width="1" stroke="rgb(0,0,0)" stroke-linejoin="miter" stroke-linecap="square" stroke-miterlimit="3"/><path d=" M 259.449 9.63 L 274.335 9.63 C 278.61 9.63 282.081 13.101 282.081 17.376 L 282.081 42.913 C 282.081 47.188 278.61 50.659 274.335 50.659 L 259.449 50.659 C 255.174 50.659 251.703 47.188 251.703 42.913 L 251.703 17.376 C 251.703 13.101 255.174 9.63 259.449 9.63 Z  M 264.58 19.433 L 268.841 19.433 C 270.604 19.433 272.036 20.865 272.036 22.628 L 272.036 35.966 C 272.036 37.729 270.604 39.161 268.841 39.161 L 264.58 39.161 C 262.817 39.161 261.385 37.729 261.385 35.966 L 261.385 22.628 C 261.385 20.865 262.817 19.433 264.58 19.433 Z " fill-rule="evenodd" fill="rgb(0,0,0)" vector-effect="non-scaling-stroke" stroke-width="1" stroke="rgb(0,0,0)" stroke-linejoin="miter" stroke-linecap="square" stroke-miterlimit="3"/><path d=" M 291.915 9.766 L 314.547 9.766 C 318.822 9.766 322.293 13.237 322.293 17.512 L 322.293 43.049 C 322.293 47.324 318.822 50.795 314.547 50.795 L 291.915 50.795 L 291.915 9.766 Z  M 304.792 19.569 L 309.053 19.569 C 310.816 19.569 312.248 21.001 312.248 22.765 L 312.248 36.102 C 312.248 37.866 310.816 39.297 309.053 39.297 L 304.792 39.297 C 303.029 39.297 301.597 37.866 301.597 36.102 L 301.597 22.765 C 301.597 21.001 303.029 19.569 304.792 19.569 Z " fill-rule="evenodd" fill="rgb(0,0,0)" vector-effect="non-scaling-stroke" stroke-width="1" stroke="rgb(0,0,0)" stroke-linejoin="miter" stroke-linecap="square" stroke-miterlimit="3"/><path d=" M 331.11 12.867 L 331.11 49.374 L 342.11 49.374 L 342.11 35.374 L 351.11 35.374 L 351.11 49.374 L 362.11 49.374 L 362.11 12.622 Q 361.718 11.374 361.192 10.922 Q 360.494 10.323 358.738 10.363 L 333.918 10.374 Q 332.448 10.632 331.917 11.137 Q 331.455 11.576 331.11 12.867 Z  M 342.11 26.374 L 351.11 26.374 L 351.11 18.374 Q 347.918 17.288 346.11 17.374 Q 344.654 17.444 342.11 18.374 L 342.11 26.374 Z " fill-rule="evenodd" fill="rgb(0,0,0)" vector-effect="non-scaling-stroke" stroke-width="1" stroke="rgb(0,0,0)" stroke-linejoin="miter" stroke-linecap="square" stroke-miterlimit="3"/><path d=" M 389.866 23.031 L 398.44 23.031 Q 398.216 17.506 396.67 15 Q 393.705 10.194 382.724 9.521 Q 376.211 9.361 373.377 11.312 C 371.373 12.691 370.217 13.213 369.109 16.637 C 368.664 18.331 368.409 21.462 368.615 22.95 C 368.439 26.483 370.571 28.715 373.641 29.528 L 387.825 35.416 C 388.327 36.311 388.387 37.283 388.001 38.234 C 387.693 38.989 387.19 39.537 386.464 39.907 C 384.702 41.043 382.692 41.234 380.748 40.452 C 378.894 39.706 377.62 38.291 377.073 36.369 L 368.635 36.505 C 368.703 39.814 369.711 42.62 371.765 45.215 C 374.782 49.027 378.593 50.614 383.899 50.704 C 390.554 50.344 395.908 47.452 397.896 41.404 C 398.667 39.057 398.795 36.885 398.304 34.463 C 398.308 32.539 397.229 30.87 395.038 29.428 L 379.523 23.848 C 378.889 23.419 378.672 22.612 378.842 21.398 C 379.28 20.23 380.043 19.377 381.156 18.812 C 382.878 17.938 384.825 18.143 386.328 19.356 L 389.866 23.031 Z " fill="rgb(0,0,0)" vector-effect="non-scaling-stroke" stroke-width="1" stroke="rgb(0,0,0)" stroke-linejoin="miter" stroke-linecap="square" stroke-miterlimit="3"/></g></g></svg>